<!-- https://feathericons.com/ -->
<svg width="28" height="28" viewBox="0 0 28 28" fill="none" xmlns="http://www.w3.org/2000/svg">
<path fill-rule="evenodd" clip-rule="evenodd" d="M14 26C14 26 24 19.4545 24 11.8182C24 9.21424 22.9464 6.71694 21.0711 4.87568C19.1957 3.03441 16.6522 2 14 2C11.3478 2 8.8043 3.03441 6.92893 4.87568C5.05357 6.71694 4 9.21424 4 11.8182C4 19.4545 14 26 14 26ZM13.9995 7.45459C11.545 7.45459 9.5551 9.40825 9.5551 11.8182C9.5551 14.2282 11.545 16.1819 13.9995 16.1819C16.4541 16.1819 18.444 14.2282 18.444 11.8182C18.444 9.40825 16.4541 7.45459 13.9995 7.45459Z" fill="#612321"/>
<path d="M14 26L13.4523 26.8367C13.785 27.0544 14.215 27.0544 14.5477 26.8367L14 26ZM23 11.8182C23 15.2275 20.7421 18.5271 18.2804 21.0784C17.0711 22.3316 15.8583 23.3573 14.9466 24.0701C14.4915 24.4259 14.1135 24.7021 13.8513 24.8881C13.7202 24.9811 13.6181 25.0514 13.55 25.0977C13.5159 25.1209 13.4904 25.138 13.4739 25.149C13.4656 25.1545 13.4597 25.1585 13.4561 25.1608C13.4542 25.162 13.453 25.1628 13.4524 25.1633C13.4521 25.1635 13.4519 25.1636 13.4519 25.1636C13.4519 25.1636 13.452 25.1635 13.452 25.1635C13.4522 25.1634 13.4523 25.1633 14 26C14.5477 26.8367 14.5479 26.8365 14.5482 26.8363C14.5484 26.8362 14.5487 26.836 14.549 26.8358C14.5496 26.8354 14.5503 26.8349 14.5512 26.8344C14.553 26.8332 14.5554 26.8316 14.5584 26.8296C14.5644 26.8256 14.5728 26.8201 14.5835 26.813C14.6049 26.7987 14.6354 26.7782 14.6746 26.7516C14.753 26.6983 14.8658 26.6205 15.0081 26.5196C15.2927 26.3178 15.696 26.0229 16.1784 25.6458C17.1417 24.8927 18.4289 23.8048 19.7196 22.4671C22.2579 19.8365 25 16.0452 25 11.8182H23ZM20.3705 5.58924C22.0563 7.24444 23 9.48544 23 11.8182H25C25 8.94304 23.8365 6.18944 21.7717 4.16211L20.3705 5.58924ZM14 3C16.3928 3 18.684 3.93343 20.3705 5.58924L21.7717 4.16211C19.7074 2.1354 16.9115 1 14 1V3ZM7.62952 5.58924C9.316 3.93343 11.6072 3 14 3V1C11.0885 1 8.29259 2.1354 6.22834 4.16211L7.62952 5.58924ZM5 11.8182C5 9.48544 5.94367 7.24444 7.62952 5.58924L6.22834 4.16211C4.16347 6.18944 3 8.94304 3 11.8182H5ZM14 26C14.5477 25.1633 14.5478 25.1634 14.548 25.1635C14.548 25.1635 14.5481 25.1636 14.5481 25.1636C14.5481 25.1636 14.5479 25.1635 14.5476 25.1633C14.547 25.1628 14.5458 25.162 14.5439 25.1608C14.5403 25.1585 14.5344 25.1545 14.5261 25.149C14.5096 25.138 14.4841 25.1209 14.45 25.0977C14.3819 25.0514 14.2798 24.9811 14.1487 24.8881C13.8865 24.7021 13.5085 24.4259 13.0534 24.0701C12.1417 23.3573 10.9289 22.3316 9.71962 21.0784C7.25788 18.5271 5 15.2275 5 11.8182H3C3 16.0452 5.74212 19.8365 8.28038 22.4671C9.57111 23.8048 10.8583 24.8927 11.8216 25.6458C12.304 26.0229 12.7073 26.3178 12.9919 26.5196C13.1342 26.6205 13.247 26.6983 13.3254 26.7516C13.3646 26.7782 13.3951 26.7987 13.4165 26.813C13.4272 26.8201 13.4356 26.8256 13.4416 26.8296C13.4446 26.8316 13.447 26.8332 13.4488 26.8344C13.4497 26.8349 13.4504 26.8354 13.451 26.8358C13.4513 26.836 13.4516 26.8362 13.4518 26.8363C13.4521 26.8365 13.4523 26.8367 14 26ZM10.5551 11.8182C10.5551 9.97776 12.0799 8.45459 13.9995 8.45459V6.45459C11.01 6.45459 8.5551 8.83875 8.5551 11.8182H10.5551ZM13.9995 15.1819C12.0799 15.1819 10.5551 13.6587 10.5551 11.8182H8.5551C8.5551 14.7977 11.01 17.1819 13.9995 17.1819V15.1819ZM17.444 11.8182C17.444 13.6587 15.9192 15.1819 13.9995 15.1819V17.1819C16.9891 17.1819 19.444 14.7977 19.444 11.8182H17.444ZM13.9995 8.45459C15.9192 8.45459 17.444 9.97776 17.444 11.8182H19.444C19.444 8.83875 16.9891 6.45459 13.9995 6.45459V8.45459Z" fill="#612321"/>
</svg>
